/* XPM */
static char *carpet[] = {
/* columns rows colors chars-per-pixel */
"96 128 26 1 ",
"  c black",
". c #171411",
"X c #1A1613",
"o c #1E1A17",
"O c #1F1B17",
"+ c #201C18",
"@ c #26211C",
"# c #2A251F",
"$ c #2D2721",
"% c #2E2822",
"& c #342D27",
"* c #352E28",
"= c #373029",
"- c #38302A",
"; c #3F362F",
": c #3F372F",
"> c #40372F",
", c #403730",
"< c #423A32",
"1 c #483F36",
"2 c #494037",
"3 c #4E443A",
"4 c #52473D",
"5 c #52483E",
"6 c #564B40",
"7 c #CF8217",
/* pixels */
"&+%##$$&+%$$+@@@%@@@$#%$&##$++%&+@&#%%@%$#+$$@@#&$%$$##&@#o@+@$@<1<<<3<1:11<<<<:2<1312<1<<1<3111",
"@&#&@#&#@$#$##$$@@$@$#$%+&+$$#&@+#$##@@@#@++#%&@@&+@##&+%@@o##o@<<<122111:<<<<:<<<2<2<<311<<<112",
"%#$+++++$+@+#$$$$$#@####@#$++$@@@#@@++++$##%$#+@##@#$#@$+@#++%$@121<12<3<11<<3<<33<11<<23<1<1311",
"$@#::#<<<<$:<+#@+@%:<@:<#<<+::#::<$::@<:$><$<:@:<$<<$:<o:<#><##$1<1<1<<2<2<211331<112<21<113<<1<",
"$##:::::<<,<:+#$#+$<:<<<:<<<::<<<<::,<<<,<,::::<<<::=<<<::<:<@@+31<1<<<<<<<<23<<11<111<13<<1<<23",
"$#$$<212112:#%+@$%++:<<11<<131<31<212<112113<<211<<1<21<121,%$#+21<112121<2<<3<311<<<<13111<<1<<",
"+&#:<1:3232<:$&$#$+<<1333:3333:343443434333333433:2333:333<<:+$@<121<111<:1121:12<<1<13<<<<11<12",
"&@@:<<4:12<:<#%$##@<:233:<<2<<1:311<2<<<<1<<<<<<:232<<<:331:<##@2<121221:<22<<3:312<<111<11<2<1<",
"+$##:<32:<<:$@%#+$$$:13:131<111<:1<12<11<<11312:<112<<3<:3<:&@@%<<<<1<<:121311<<:2<323<13<31<<<:",
"@$$<>141<:3,<@+##$#<<<:<<1<1<21<1:<<112121<1<1:<<<2<2111<:2<:@@#22<<<1:23<1<33343:41131121<3<1:<",
"#@$::<31<3:<<##@#$&,::3<12<<1<2<<<:1221<<<31<:<2<111111<13:>:$+#<22<<:3<<2<311<111:33<<<3<<<1:<3",
"$@@+:332132:%$+@$$+#:23<<<<<11211<3:23<<2213:<<21<11<21213<:@+@#1<<2:23<<<323<<:,:<:13<13<22:211",
"$$#<<<3<21<<:@@#$##::13<13<131<<1<1<:<<<21<:1<2<1121<3<<232::#$#11<:13<<23<3<<#<#::<:<412<<:2112",
"@+$:<23<33<::&$@@o&,<13331<<<<3221211:2211:1111123113<<<331<<&@#<1:<<1<2<3<::<@$#@:<::3<<<:<11<1",
"+#+%<<3<23<<$#$#@@#@<33111<<1122111<3121<<21<13<31<1<<1<13<:@$o#2<212<1<<3<,,##@#++$<<3<21<1<<12",
"@$#<<<41122<<%+++$#:<13<1<3<2<<<<1<11<<1<1<231<122<<32<<<31<<@@$2111<<11331<###$#$+<<131123<<<<3",
"#$@<<<31<32<<@#@#@@:<13122<12<2<<11<<11<<<11<<1<<<<1<<23132<<@o+<122<2<<<3<<<%+#@@$#<<3<<21<<32<",
"@#@#<<3133<:>&@++@#@<33<3<2<2<11<<<1<231<<11111111<2<<21<4<<:$$@<<<13111331:&#%#$&+:<3421111133<",
"%#$<<33<<31<@&@+#$&:<<3<21112<<1<<21<:3<<1:<<3<<1213<3<1231:+&@o<2:<2<<213<<,<#+$@:<<:31<<:<12<<",
"@$#<:13<<3<<:#$@+@%:<<3<2<113<<<1<12:<2<2<<:21<1<<<<21<1141<:@@$<1<:<1<<<4<3:<>+<@:::<41<3<:<31<",
"$$$#:132<31:<#@+%###:<321<<1<11<111:1<3<<11<:2<<<<1<13<1<3<::@#+2<13:<1<3<3<<:<<<:::2311<21<:<2<",
"@$@<<<4<13:<#$+%#@&<::3221222<2111:32<1113112:<<21<12<<<<3:<+##$1<<11:111<13<3<<<1:14<<23<<2<:2<",
"#@@<<<32<:<:<@@%%#$<:2:1<1<<31312:<<12<12<<31<:<11<1<2<<3:2<<++$31<2<<:<<<<232433:33<<<113223<:<",
"#$$@<331:3<<:#$@$+#$:<3:1112<<<1:<2<11<<<111<<1:11212<<1:33<<##@211<2<<:11<<1<<<:<1<311111<<<1<:",
"&#$<:<3:341<$+$+$#+,<<3<:22121<:1<2<2<312<<32132:13<<<<:<3<<@#@@<1<<<1<<:<3<11<:<<1<1<2132<<22<1",
"%&$:<1:<<31<:@@+$++><342<:<2<2:1<<<<11<<<121<11<<:<<<<:1<41:<@o%31<<21111:<<1<:<11<22331<13111<1",
"+#@$:<3113<<:@$+#+$$<<33<<31<<3<122<<111<3<11<<1<11<<3<<13<<<$+$22<<<1<<3<<121<1<<<<11212<<<1<22",
"+#$:<<32<33:$$##@#$<<13<<2133<<<12<111<<<<<11<1<13<3<133<33<$#%#2113<2<<2<1<3221<113<22<21111<1<",
"+@#<<<3<332<<$#%@@+:<12<11<<<3<1<111<312<2<12<<<1<<<<<3<<31<:##@2231<<223<21121<1<112<<122<<13<<",
"$##@<<31232<:+@#$%#$:<4111<<12112222111<<<<<21311223,3<2<3<::#$$<<1<<31<22<<2<<2<<<1<13<2<13<<3<",
"#&#::<:122<<@%#%#@+::23<<:<<11:22<121<2<<1111<<<1:<11<:<13<,@#$$1<11<1222:<<<<:1<111213131<1<21<",
"&##<<<3:33<<<@#@o%@<:<31:3<<112:3<11<2<<3<3<1133:111<<2:<3<:,$#$11131<11:<1<3<1:2<2<<31<1<1<<<<1",
"#+&<<14<:3<<<#++$%#<<13:<<<21<2<:1<<33<1<<<<1<1:11<2<<<<:3<:<%$@++&#:13:<11<<2<1:211<2<<13<::##&",
"#&$#:<22<:<:##%@+#@#<<:<1<<<11<2<:<<111<21<<<1:<112<1<<3<:<:$$$#$%#<:1:<<111<12<<:2<21<<<3<:$#&$",
"@#@>:<3<<3:<<@@++$#<<:31<23<<3<<<2:<11<13<1<<:1<13<<111313:<<@@@#@:<<:32<<<<132131:<1<12<32<<:%#",
"+##:,33<23<:<+#$#$#<:<312111<1<3<<3:<112111<:232<<<<1122<3<::@@#<o<::<4113<3<22<12<:1<<<12<<::<$",
"$#@@:233<3<<&++@$#+&:<31<22<<<<<31<<:211<<2:121<21<312<313<<&+$&<:::341111<11<12<<<<:1<11<3:1<<:",
"+#$<<<31231<,&#@#@&<:132<1<3313<2<112:<2<<:1,3<32<<<<<<3131<:&@+11:14<233<1<<32<<<12<:2<<<:311<3",
"&@@<:23214<<<+##$#@<<11<2<<32<1<<<3<<1<11<2<31<<22<2<131<1<<<@##3433<<<1<1<22<2<32<1<22111113333",
"$$$+<<<1<2<<@+#+#+%#><3<<21<<<<<2<1312322<<3<<3132111<<1<3<:&@#+21<<3<<<1<<<<111121<2<12323<<<1<",
"$$+:<<31331:<#@+@$@<:<43<2<222<3<<<11<1<111112<<<2<1<<<1333<<@o#231<112<11<<2<<<3<221133<<<<12<3",
"###:<<3333<,<##+#+@:<<333<3333344333133343332324333344<333<<:@$@<1<21133111234334333122<<<<<1<32",
"+@##<<<<<<3<@&#$@$&@:1<<<3<1<1<2<33,<:3<<3:211<22<<2121<3<<<#&@$<<:<131311<33<<<<<114:<2<2:2<3<1",
"$+%<<<<<:,<<:$#%+o@::<<<::::::::<,:<:<<,::<:<>::<:<<<<:<:<<::###111:322<2331<<:<::<1:33221<:1<<<",
"#@$><$<:<<@:<+#$$$$::&::&<<@<<#<<+::#<:#<:+<:#<<<+:<@:<@<<+:<$#$111<:<<1<3<2<<@<#:<:1<3<111<:<<<",
"$@#@+@$$#$&#@#@&#%##$&$@#@##%%#$@#*#o$@$@#+++*@$o@@#@#$+#@&+$@@+2112<:2112<<<:#+@+:<<<3<<21<1:<<",
"+$@+$%%##&@@@+%#$++#+#&@$@+##@o$@&#@##+@%##@+$&o++#$$++#+&$%@o@$2<1<3<:<33<::#@$@&@+:<321<<<<2:2",
"#+o#@@#@&++@$#X##@+o$$$&@+$%###$&#%%@@##&@#$$@@&+#+#%@$#&#&@@%+#<22<<32:233:@@@$&$+:<<3<<1<<112:",
"&#@@@##&#+o$++##$@$$@+$%&#@@#++&+@#%#@+@@@@@&#@$&@@+#$#&#$#o@#$@@%%##@+#&o%#@#&&###$+$+$+@+$+++#",
"@&+$#$&+#@#+###@##+&##$@%&+%#@&++@#+$$##%#@@&#%#%*#@$$&@+#$$@%$@$$$+@####&@#$#&@@@##@+%@@@+%+@@@",
"@$%#+X%$@@#@+%#+@$o%@%@%$+@o+@@@+$$+&#+$@#@&##@+$#X#%@##@+$o#$+o##+@@@##@+$$#@#$+$#+@$#$+@+##+@%",
"#+#<,+<:<:+:<#+$+o+:<#::@<<%::#<::+<:#::o<:#:<@<<@,:&<<#:<@<:$$+$@@##++#$#@@@@$$##@%+#+$+o#@%###",
"##$<:::<:<<<<&o@#@$::<<<<><:,<,:<::<<:::<:<:::<:::,><<<<:<<:<+#@@@#####@#+#+$@$@@$%##++$o$@#&+o@",
"#@+@:313132,#%o+#@@@<<1<<<31<211<<<1<3<12<1<<31<12<<3<<13<1:#$$#@#@$@#$++o$#@#+#+$@+#@@@+#+@#$+@",
"#&+,<1:333<<<o%+###<:1321:3333:433343442333333333:233  <333<<@$#%@++#@@@#&+#$@&@@##+@$@%@+$#####",
"&#$::33:23<::#$+#+#<<<33:     <:21<21<<2<1<<1<<<:1<< 77 <4<::%#@$$+@@#$#&$@@#@$&#%+#@@%++##@#@@$",
"###<<<4<:31<<#%#+##<:<1: 77777 <  <  1<   3<      1<   <:  ::  @      &&$@+++$@$&@+#++o$+#@+%#$&",
"@#+:<<333:<<:##@#$+::<:3 77  77 77 77  777  777777  777  77  77 777777 #@@$@+#$@@&#@++$%@#%#@$&o",
"@%##:31<<3::##+$@#%#::<< 77  77 77777 77 77 77 7 77  77  77  77 77 7 77 @@$###@$#@&$#@+##@#$#*%@",
"$$+<<<:::,<::@o@+$#<:<<< 77777  77  7 77777 77 7 77  77  77  77 77 7 77 #%#@@$@#@@#&++#@#$+#&#$+",
"o##::$:::<@<:##%#@@::$<< 77   $ 77 :  77    77   77  77  77  77 77   77 +@#@+++#+$+@&@+@@@#&+@+#",
"$$%#@#@##++@#&$#+$&$+$@& 77 +#@ 77 @@* 7777 77 $ 77 7777  7777  77 @ 77 ##$$%#$o@%o%#&+@$@*%@&@@",
"$@@##+#+@#$$$$+@$@@+$$$#%  @@$%$  @#@$@    +  ###  $    &#    $@  $@#  #+++o@#o$@&%###$$+@$##$#@",
"%$@+@#@@%o#@##%&@###++$@@#+@#@@$##@$+@@###@@%+$$#++#@%@o@@$@@o@#@#@#$#@@+@@#@#$@@@+@##$$$@#+$###",
"$##@##@$@$$@o@o+$+@%$@+oo#@@$&#@@+&#o@#@@##+#$@$$$@  ###&#@@@$##<<<<<  <<<<<<,<<1<<<<<<<2<<1<21<",
"+#@@%$#@#%@#@##+@#$o##+$   *@   ::$:::#*:#::$::$o: 77 ###++@@##@:<<< 77 <<<<<<11<<<<<<<<<<><<:<<",
"#%@##$+:::o++&#@$&&#%##: 77  77 3   4:  3  3:   :4   3::    $&     < 77 <<<<<<<1<<<<<:1<<<:<1<<<",
"###@:::44:&:&$&%##@&:::4 77  77  777  77 77  777  777 : 7777  77777  77 <<<<<<<<<<1<:11<<<<:<<<,",
"%$@:33:44:3::&#@$@o::4:54 7  7  77 77 77777 77  43 77  77  77 77  77 77 <<<1<<<:<<<:><><,<<<:<<<",
"$@#:554:*3:3&$#$$#+*3:3:4 7777  77777 77  7 7777 < 77  77  77 77  77 77 <1<12<<<<<:1<<><<<<<<:<<",
"##:**433<:4::#@@#@=:&4:343 77 < 77    77 1 1   77  77  77  77 77  77   <<<<><<<<<:<<<<<<1<<<<<:<",
"$+:44:<4:3:53&%@&#:33:<:3< 77 << 7777 77 << 7777  7777  7777  77  77 77 <<<<<<<<:<1<<<<<<<<<<<<:",
"&#:333<:44543:#o+$*444<<:<3  <<:<    1  <<<<    :<    1:    4:  <1  <  2:<<<<1<:<1,<<2<<<<<<1<<<",
"@&:=34:<1333::&$#$:&464<<:<2<1:<<<<1<<11<<<1<<<<<:<<12:<<333:&:+<<<<<<<11:<<<<:<<1<2<:<<<1<<<<<<",
"#:43=41<<53:53:$#:34:4<<2<<<<<<<<<<<2<<1<<<<2<<1<<<<<<<1<44:34:@<:<<<<<2<<<<<<1<<1<<<<<<><11<<<1",
"#=33<<2<<<3434:o#=54<<<<<<<<<<<<<2<<<1<<12<<<<><<<<<<<11<<3443:@<<<<<<<<<<<<3411<<<4<<<<<<<,<<<<",
"++:342<<2<<4::+%#+:33<<12<<<2<<<<<1<1<<<<<<<<1<<<<<<<<<1<<13:&o@:<<<<1<<<<<5<341434<<<<<1<1<<<<<",
"+*53<<<<<<3334:##=44<<<<<<<<1<<<<<<<<<1<<>12<<<<<:<<1<<<<14453:+<<<<<<<<<<224:3444:34<1<<1<<1<<<",
"@*444<:<<<<345:oo:344<<<<:<1<>:<<<1<1<<<21<<<<<11:<<<<:1<<<334:$<<1<211<<:1<44::::34<:<<<<1<<1<<",
"&@::3<<:1<<<4:##+#*:5<1<:<2<<<<:<<<<<<<>1<1<<<<<:<<<<<<:<<<<3:#+<<<<<<<<:<<<44:&#:3><<1<<<:<<2<<",
"+#:54<<<:4<444&$@@:431<:<<<,<21<:<1<<<<<<:<<<11:<<<1<<><:4<433=@<<<><<1:<<<<:5:@&:43<<<<<<<<<<1:",
"#:43<3<<1:3445:+$<33<4:<<<<<<1<<<:<<<<<<<<<<<1:<<,1<<<1<<:3533*+<2<<<<:<<<<<33::::43<<1<<<<<<>:<",
"@<4<:<<<<<:4::@+@:3<::<<<<<<<1><1<:1<<<<<<<<<:<<<11<<<<<<::4::#$<<<<<:2<<<<34:4423*2<<<<<<11::<<",
"@+::3<<<<<<:35:@%@:=:<1<<<<1<<<,1<<:<:<<<<<<:<1<<1<<<1<<<<<:44:$2<<<:<1<2><<<443<33:3<<<1<12:<<<",
"%*3434<<<<<4:3:$@:4:53<<<<<<<<<<<<<<:<<<<:<:<<<<<11<<<<<<<<3:4:#<<<:<<12<><<41<<<<4<:1<<<<<:<<<1",
"@:344431<<3:3::@@::3433<3<<<<<1<<<<<<:1<<<:<<<<<<<<1<<<<<<3:4:&$<<:<1<<<<1<<<<<<,<<<<:<<<<:<<<<<",
"%$:4342<<344:*$+@@*333<<<<<<1<1<2<<<<<<<<<<<1<<<<<<<<<<1<343::$$<<<1<<31<<<<<<<11<<<<11<<<<<2<<<",
"%:4334<<<<<3:2:+#:3354<<<<<<<1<<<<<1<<<<<<<<<<<,<<<<<<<<<<<1:3:$<<<<<<<<<1><<<<<<<:<<<1<<<12<<<<",
"o:3&41:<<<4333:@+:4&3<<<11<<<<<<<:<<<13<<<<<<<,11<<<<<:<<<3343:#2<<1<<<<<<<<<<<<<<<2<<<<<<<<1<<<",
"%#::443<<<454=#@+#::353<<11<<<><11,<121<<<<<<<<<<<><<<<<<<444:++<<<<1<<21<,<<<<,<<<<:<<1<1<<1<23",
"$:33&5<<14343::##&:3:4<<1<<<<<11<<<<<:11<<:<<1<1<<<1<1<<<3344::+<1:1><<<<<<<<<<1<<<3<:<<<<:<3<<1",
"+:444<<<<<43:4:##>4:4<<>1<<<1<<<<<<,:<<1<1<:<2<<<<<<<<<<<<34:3:+<<<:<><<<1<<<<<<<2<<:<,<<<<:1<1<",
"@:433<<1<<<:::##@*34:<<<<<<<<2<<<<<:1<1<<<<<:<<<<<<<<<<<<<<:**#$<<<<:<<<<<<<<<<<<>,:<,<1<<<1:1<<",
"@#::34<<<1:*<3:$++::3:1<<<<<<<1<<<:11<1<<<<<1:<:<1<<<<<<<<::<4:$<<<<<:<<<2<<11<<<<:<1<1<<11<<:<<",
"+=44444<1:3<33:#+:4444><2<<<<<1<2:<<<<<<<<<<<<:1<<1><<<<<:4<34:@<<<<<<:<1<1<<<<<1:<<1<<<12<<<<:<",
"@:344<3<:<<34=$$%*44313:<<1<<<<1:1<<<<<<<<<<<<1:<<<<<<<1:<<34:#$<<<<<:<:<<<1<2<<:<<<<<<1<<<<<<<:",
"&+:4<<<:<1<3:<@$@#:3<<<<:<<<<<1:<<<<<1<1<<<<<,<<:<<<1<1:1<24::#@@:35<<<1:1<<<<1:<<<<1<<<<<<<14:@",
"$:434<:<<<<544:$+:433<<<<:<<<<:<<<<<1<<1<<<<<<21<:<<<<::11:343:$::43<<<<<:<<<,:<1<<1<<12<<<244::",
"#*3454<<<<<<35:#$:2333<<<<1<<<<<<<<1<<<<<<<<<<12<<<<<3<<<<<<33*@33:4<><<<<<<<<<<<<<<1<<1<<<44:33",
"%+<:3<2<<2<53:@+$$::4<<<<,<<<<11<<<<<2<<<<<<<<11<<<<<<1<<:<43:#@<44<2<<<<<<<<<<<<<<<<<2<<1<<1564",
"&:3444<<<<<<33:$%:4443<<<<<<<<<<<<<<:<<<:<<1<<<:<<<1><<<<<<<44*@2<3<<<1<<<<<<<1<<<1<2<<11<<15<<<",
"#:34:331<<3:34:#@:44:44><,<<<<<1<<<<<<<<<<<<<<<<<<1<1<,<<<4>45:@<1<<<<<<<<<<<<<<<3<<<<<<1<<<1><<",
"@=::32:1<433::$@%=*:334<<:<1<<:<<<<<<<<<<<<<<<<<<:<<<<:<<443::+#<<<2<<<<<:<<1<:<<2<<1111<<<<<1<<",
"*@:3433:<<433:@@$@*34333:<1<<<<:<1<11<<<<1:<1<<1:<<<1<<:<<334:@#<<<<,1<<:<<<<<1:<1<<<1<<<<<<11<<",
"@$:33:53:1:35=@##+:43:3:<<<<<<<<:<<<:<:211<<<<<:<<<<:<<3:<:34:@#<1<<<<1:<11<2<<<:,1<<<<<<<<12<<:",
"+##:*3423:4:::+####::5:<<3<<<:<<<:<<<3<<14<<<<:3<<<1<1335:3:::#+<<<<<::<<<<<<<3<<:1<<<1<1<<<<>::",
"#@$&444::4:4:@$#@+$:5:4:344<<<<<<3:<3345<43<<:4<<13<3334&3:4*+@$<<<<::<,<1<<<<<<<1::<<<><<<<<:1<",
"$&@:34:34:4::@+#++$::4:443:<4<334<::334334:3>554<3344:332:3::#$@<1<1:<<<<<<<<4<<<<<:<1<1<<1<:11<",
"@##+:*:43:::&$@####&:::33:43433:34<::444::4:3&44435:43&44::*&$$$<<<:<<1<<<<3254<434<:<<<<1<:<<<<",
"$@#+@@:::o$%+&$+#@&$#@::*:43:34:&43:4:&43::54:33:53:33:<:#+#$&#@<<:<<<1<<<<<4:3443=44:<<<<:<<<<1",
"#$@#%+#@%$+#+@#$#@$+##@$+#&*@::$@::@::#==+:::@:<%:*+*%:@#$%%#$@+1<1<<<<<<<<<44::=:44<1<<<<<1<<<<",
"+###@$@+$#@@@#@#$@+@+@@@+#+####+@$@#@#@$++$$$%$###o.%@$###+@@&+o<<11<<<<<<<<45:#+:3<<<1<1<<<<1<<",
"@$%###o+$@#@@$%@#+$%@#@#@@@@++@$%%@@$@$##@$++%+@#$#+@+##@#@%$@$@#$+#$#$@#@@+$$@+#+##%@o@o#+$%+%+",
"@@$+@$@#@@#@#&%@+o%#@#%#$:::@=:$::+<::+::+::%::@@::+::$o@@@+@+#@$#@%#@#%%$#&@###%%@o+@&o##@@@@+#",
"$##@$@%::*$##&#@o#&+++#:**34:33:33:43::33::4:34&:34*43:::=$$+&##@$&#&#@@@$##@@@##@+%+&+#+#&@+#+@",
"$$$$:&:44::=&@$$###&*:=33&43:53543:3:3::434::<33:54434:35::<&@@+#+@&@@%#o@+++@$$%%#@&&$#$@+&%#@$",
"###:43:33*5::#@++$$::3&434*5433<434:3:343333::<335<3<:353=4::o@%##@#&$@@###@@+@#$@#&$##@++$o&@+#",
"$##:354*&3:4:+#@+#$*6:4:3433<4<<13:<<34<4434<:5<<1<<<345&3:3*#$@###++&#@+$@@#@++#@&@+#$$#$#@&&##",
"%@:=:434<:4::##@@#:=:4:5344<<<<<4:<2<<31<<3<<<:<1<<<<<5<<:3:<#++@#$@$#&#+#@##$+#o&$##@$@%##@@#&#",
"$#=33:<3:3:33*$o+$=33:1:41<:<<<1:<<1<<<<<<:<1<<:<<<<<<<<:4:44:@$##@+$$+&$##$$#@+&#$@@#%#@#$#+#@&",
"&+:34:4:3:*33:+$+#:33=15:<<<<<<:11<<<<<<<<<2<<<<:<<1<<1:3<&44:@@$@++@@&$&@+o$##&@+@$##@@+$@&@@$$",
"#&+::5:<334**:$@@@+=&351<:<<<<::<1<<<3<2<3<<<<43<:<<:3:4443:::&%$$$$+@@%#&o#$+&+$@@@+@++#####%#o",
"@@@:434::454*$+@%++:343:4331<<<<<4<<3343<44<<33<<<323333=334:@+%@#++$@@@@@o+@#@$$##@@$$@@@##+#@+",
"++@*44:33:44:&@$#+#=34:354:<3<434<:4333344:33343<5433:333=44:#$#@$$#@$#$%++@@#@$$o@+#$#@@#+#$%#+",
"#o#+=::33:::o++$X##+::=34:34333:43<:3543>:333:34333:33:43:&:%$#@+@$$%+@@#@%o$@#@@@++@#+##&##$@+@",
"#o+$#@:::$@#$%#+@$+#@$::::44:44::53:34:34<343:33:44:43:=:#$++#$@$$@@+@@$%#$+@$####$#%@@#$##+@$$@",
"$&$@#@&@@+o+@$o$+$$+@+##+&::#:*@#:&#::@*:$:=:@::#=:@::*@%$##$@%$+$@##$#$+&$@#@*#$$#@$@#+##o#o@$@",
"&$++#@@&$@o@@$$@#@++@##$*+@#%$@&#$oo@+##$@#+@#$o&###@+$&+++@&%@@$#+#$%$+&#$+@#+&####$$##%$$#$++#"
};
