/* XPM */
static char *floortile[] = {
/* columns rows colors chars-per-pixel */
"32 32 3 1 ",
"  c black",
". c #24313E",
"X c #36485A",
/* pixels */
"                                ",
"XXXXXX.XXXXXXX    XXXXXXXXXXXXXX",
"XXXXX.XXXXXXXXX  XXXXXXXXXXXXXXX",
"XXXXXXXXXXXXXXX  XXXXXXXXXXXXXXX",
"XXXXXXXXXXXXXXX  XXXXXXXXXXXXXXX",
"XXXXXXXXXXXXXXX  XXXXXXXXXXXXXXX",
"XXXXXXXXXXXXXXX  XXXXXXXXXXXXXXX",
"XXXXXXXXXXXXXXX  X.XXXXXXXXXXXXX",
"XXXXXXXXXXXXXXX  .XXXXXXXXXXXXXX",
"XXXXXXXXXXXXXXX  XXXXXXXXXXXXXXX",
"XXXXXXXXXXXXXXX  XXXXXXXXXXXXXXX",
"XXXXXXXXXXXXXXX  XXXXXXXXXXXXXXX",
"XXXXXXXXXXXXXXX  XXXXXXXXXXXXXXX",
"XXXXXXXXXXXXXXX  XXXXXXXXXXXXXXX",
"XXXXXXXXXXXXXX    XXXXXXXXXXXXXX",
"                                ",
"                                ",
"  XXXXXX.XXXXXXXXXXXXXXX.XXXXX  ",
" XXXXXXXX.XXXXXXXXXXXXX.X.XXXXX ",
" XXXXXXXXXXXXXXXXXXXXX.XXXXXXXX ",
" XXXXXXXXXXXXXXXXXXXXXXXXXXXXXX ",
" XXXXXXXXXXXXXXXXXXXXXXXXXXXXXX ",
" XXXXXXXXXXXXXXXXXXXXXXXXXXXXXX ",
" XXXXXXXXXXXXXXXXXXXXXXXXXXXXXX ",
" XXXXXXXXXXXXXXXXXXXXXXXXXXXXXX ",
" XXXXXXXXXXXXXXXXXXXXXXXXXXXXXX ",
" XXXXXXXXXXXXXXXXXXXXXXXXXXXXXX ",
" XXXXXXXXXXXXXXXXXXXXXXXXXXXXXX ",
" XXXXXXXXXXXXXXXXXXXXXXXXXXXXXX ",
" XX.XXXXXXXXXXXXXXXXXXXXXXXXXXX ",
"  XX.XXXXXXXXXXXXXXXXXXXXXXXXX  ",
"                                "
};
