/* XPM */
static char *globe[] = {
/* columns rows colors chars-per-pixel */
"32 32 6 1 ",
"  c None",
". c white",
"X c #CAECF4",
"o c #7CCFE4",
"O c black",
"+ c white",
/* pixels */
"             ......             ",
"          ............   .      ",
"         ......XX......  .      ",
"       .......XXXXXX...... ..   ",
"    . .......XXXXXX.XX.... ..   ",
"      ...XXXXXXXXXXXXXX...      ",
"     ...XX.....ooooXXXXX...     ",
"    ....X......oooooooX.....    ",
"    ....X......oooooooo.....    ",
"  . ..XX.......oooooooo.....    ",
"   ...XX......oooooooooo.....   ",
"   ....XX....ooooooooooo..... . ",
"   ....XXoooooooooooooooo.....  ",
"  .....XXoooooooooooooooo....   ",
"   ....XXooooooooooooooo.....   ",
"   ...XXXooooooooooooooo.....   ",
"    ..XXXoooooooooooo.......    ",
"    ...X..ooooooooooooo.....    ",
"    .....oooooooooooo.oo....    ",
"     ......ooo.oooooo..o...     ",
"      ....oooo.oooo.......      ",
"      .........ooo........      ",
"   .. ..........oo....... .     ",
"   ..    ........o.....     ..  ",
"          ............      ..  ",
"             ......             ",
"                                ",
"          OOOOOOOOOOOO          ",
"        OOOOOOOOOOOOOOOO        ",
"       OOOOOOOOOOOOOOOOOO       ",
"        OOOOOOOOOOOOOOOO        ",
"          OOOOOOOOOOOO          "
};
