/* XPM */
static char *guy_front[] = {
/* columns rows colors chars-per-pixel */
"32 32 10 1 ",
"  c None",
". c gray29",
"X c gray50",
"o c #C3C3C3",
"O c white",
"+ c #282828",
"@ c #482D1E",
"# c #5C3A27",
"$ c #895538",
"% c white",
/* pixels */
"           ..........           ",
"          .XXXXXXXXXX.          ",
"          .XoooXXoooX.          ",
"         .XoooOooOoooX.         ",
"         .XoooOooOoooX.         ",
"         .XXXXooooXXXX.         ",
"         ..............         ",
"         .oooooooooooo.         ",
"         .o....oo....o.         ",
"         ...+++..+++...         ",
"          +o..++++..o+          ",
"        ...oXo....oXo...        ",
"       .XXX.XoXooXoX.XXX.       ",
"      .OoXXX.oXooXo.XXXoO.      ",
"      .oOoXXX......XXXoOo.      ",
"      .ooooX+XX++XX+Xoooo.      ",
"       ....+XooXXooX+....       ",
"        +XX.oXXXXXXo.XX+        ",
"       .ooX.XooXXooX.Xoo.       ",
"       .ooX.oXXXXXXo.Xoo.       ",
"       ...X@...##...@X...       ",
"       .oo.@$$#$$#$$@.oo.       ",
"       .Xoo.@@@##@@@.ooX.       ",
"       .XX.+XXX++XXX+.XX.       ",
"        .. .ooX..Xoo. ..        ",
"           .ooX..Xoo.           ",
"          .X........X.          ",
"         +..XXX..XXX..+         ",
"        ++.oooX..Xooo.++        ",
"        ++.XooX..XooX.++        ",
"         ++..........++         ",
"           ++++++++++           "
};
