/* XPM */
static char *guy_up[] = {
/* columns rows colors chars-per-pixel */
"32 32 10 1 ",
"  c None",
". c gray29",
"X c gray50",
"o c #C3C3C3",
"O c white",
"+ c #282828",
"@ c #482D1E",
"# c #5C3A27",
"$ c #895538",
"% c white",
/* pixels */
"           ..........           ",
"          .XXXXXXXXXX.          ",
"          .XoooXXoooX.          ",
"         .XoooOooOoooX.         ",
"         .XoooOooOoooX.         ",
"         .XoooOooOoooX.         ",
"         .X..ooXXoo..X.         ",
"         ..o.ooXXoo.o..         ",
"         .o.oooXXooo.o.         ",
"         ..ooXXXXXXoo..         ",
"         .XXX......XXX.         ",
"        .....X+XX+X.....        ",
"       .XXX+XX.XX.XX+XXX.       ",
"      .OoXXX+@@@@@@+XXXoO.      ",
"      .oOoXXX.####.XXXoOo.      ",
"      .oOooXXX.@@.XXXooOo.      ",
"       .ooooXX.XX.XXoooo.       ",
"        ..ooo.XXXX.ooo..        ",
"       .oo...@XooX@...oo.       ",
"       .ooX+#@oooo@#+Xoo.       ",
"       .ooX@@@....@@@Xoo.       ",
"       .ooX@$$$$$$$$@Xoo.       ",
"       ...X.@@@@@@@@.X...       ",
"       .XX.+XXX++XXX+.XX.       ",
"        .. +ooX..Xoo+ ..        ",
"           .ooX..Xoo.           ",
"          .XooX..XooX.          ",
"         +..XoX..XoX..+         ",
"        ++.X........X.++        ",
"        ++.XXXX..XXXX.++        ",
"         ++..........++         ",
"           ++++++++++           "
};
