/* XPM */
static char *guy_right[] = {
/* columns rows colors chars-per-pixel */
"32 32 10 1 ",
"  c None",
". c gray29",
"X c gray50",
"o c #C3C3C3",
"O c white",
"+ c #282828",
"@ c #482D1E",
"# c #5C3A27",
"$ c #895538",
"% c white",
/* pixels */
"           ..........           ",
"          .XXXXXXXXXX.          ",
"         .XXXoooOooOXX.         ",
"         .XXoooooOooOX.         ",
"         .XXoooooOooOX.         ",
"         .XXXXXXXoooo...        ",
"         ............oo.        ",
"         .ooooooooooooo.        ",
"         ....oo....oo..         ",
"         ++oX.o.+++..+.         ",
"          .XoX.........         ",
"          +.XoXoXoXooX.         ",
"         .XX.oXoXoXoo..         ",
"        .oXXX........X..        ",
"       .oOoXXXX+XX+++XXX.       ",
"       .ooooX.+XXX..X+Xo.       ",
"        ......XXooXXo...        ",
"        .XXX+XXXXXXXX.+         ",
"        .ooX.XXXooXXo..         ",
"        ..oX..XoXXXXX..         ",
"        .o..@.....##.@X.        ",
"        .ooo.@$$$#$$#@X.        ",
"        .XXX.@@@@@##@@..        ",
"        .....++XX++XX.          ",
"            +XXoX+Xo.           ",
"            .XXoX.Xo.           ",
"           +..XoX.Xo.           ",
"         +++.X......X.+         ",
"        +++.XXXXXX.XoX.+        ",
"        +++...oooXX...++        ",
"         +++++.....++++         ",
"           ++++++++++           "
};
