/* XPM */
static char *guy_left[] = {
/* columns rows colors chars-per-pixel */
"32 32 10 1 ",
"  c None",
". c gray29",
"X c gray50",
"o c white",
"O c #C3C3C3",
"+ c #282828",
"@ c #482D1E",
"# c #5C3A27",
"$ c #895538",
"% c white",
/* pixels */
"           ..........           ",
"          .XXXXXXXXXX.          ",
"         .XXoOOoOOOXXX.         ",
"         .XoOOoOOOOOXX.         ",
"         .XoOOoOOOOOXX.         ",
"        ...OOOOXXXXXXX.         ",
"        .OO............         ",
"        .OOOOOOOOOOOOO.         ",
"         ..OO....OO....         ",
"         .+..+++.O.XO++         ",
"         .........XOX.          ",
"         .XOOXOXOXOX.+          ",
"         ..OOXOXOXO.XX.         ",
"        ..X........XXXO.        ",
"       .XXX+++XX+XXXXOoO.       ",
"       .OX+X..XXX+.XOOOO.       ",
"        ...OXXOOXX......        ",
"         +.XXXXXXXX+XXX.        ",
"         ..OXXOOXXX.XOO.        ",
"         ..XXXXXOX..XO..        ",
"        .X@.##.....@..O.        ",
"        .X@#$$#$$$@.OOO.        ",
"        ..@@##@@@@@.XXX.        ",
"          .XX++XX++.....        ",
"           .OX+XOXX+            ",
"           .OX.XOXX.            ",
"           .OX.XOX..+           ",
"         +.X......X.+++         ",
"        +.XOX.XXXXXX.+++        ",
"        ++...XXOOO...+++        ",
"         ++++.....+++++         ",
"           ++++++++++           "
};
