/* XPM */
static char *open2[] = {
/* columns rows colors chars-per-pixel */
"32 32 7 1 ",
"  c black",
". c #3C3C3C",
"X c #36485A",
"o c #465E75",
"O c #6382A0",
"+ c #879EB6",
"@ c #C3C3C3",
/* pixels */
"XooooooooooooooooooooooooooooooX",
"oo..oo+++++X++++++++++++++oo..oo",
"o.@ .o++++++X+++++++X+++++o.@ .o",
"o.  .oXXXXXXXXXXXXXXXXXXXXo.  .o",
"oo..oooooooooooooooooooooooo..oo",
"ooooooOOOOOOOOOOOOOOOOOOOOoooooX",
"o++XoOOOOOOOOOOOOOOOOOOOOOOoo++X",
"o++XoOOOOOOOOOOOOOOOOOOOOOOOo++X",
"o++XoOOOOOOOOOOOOOOOOOOOOOOOo++X",
"o++XXXXXXXXXXXXXXXXXXXXXXXXXo++X",
"o++X                        o++X",
"o++X                        o++X",
"oX+X                        o++X",
"o+XX                        o++X",
"o++X                        o++X",
"o++X                        XooX",
"o++X                        X++o",
"o++X                        o++X",
"o++X                        o++X",
"o++X                        o++X",
"oX+X                        o++X",
"X++X                        o++X",
"o++Xooooooooooooooooooooooooo++X",
"o++XoOOOOOOOOOOOOOOOOOOOOOOOo++X",
"o++XoOOOOOOOOOOOOOOOOOOOOOOOo++X",
"o++XoOOOOOOOOOOOOOOOOOOOOOOOo++X",
"ooooooOOOOOOOOOOOOOOOOOOOOOooooX",
"oo..oooOOOOOOOOOOOOOOOOOOOoo..oo",
"o.@ .oooooooooooooooooooooo.@ .o",
"o.  .o++++++++X+++++++++++o.  .o",
"oo..oo+++++++++X++++++++++oo..oo",
"XooooXXXXXXXXXXXXXXXXXXXXXXooooX"
};
