/* XPM */
static char *port1[] = {
/* columns rows colors chars-per-pixel */
"32 32 8 1 ",
"  c black",
". c #36485A",
"X c #465E75",
"o c #005980",
"O c #00A2E8",
"+ c #879EB6",
"@ c #91DEFF",
"# c white",
/* pixels */
".XXXXXXXXXXXXXXXXXXXXXXXXXXXXXX.",
"XXOOXX+++++.++++++++++++++XXOOXX",
"XO#@OX++++++.+++++++.+++++XO#@OX",
"XO@@OX....................XO@@OX",
"XXOOXX@@@@@@@@@@@@@@@@@@@@XXOOXX",
"XXXXX@@  oooooo@@        @@XXXX.",
"X++.@@      ooooo@        @@X++.",
"X++.@     @   oooo@    @   @X++.",
"X++.@  @       ooo@        @X++.",
"X++.@           ooo@      o@X++.",
"X++.@        @   oo@    @ o@X++.",
"X++.@            oo@      o@X++.",
"X.+.@    @@@     o@      oo@X++.",
"X+..@  @@ooo@@  oo@  @   oo@X++.",
"X++.@ @ooooooo@ o@      ooo@X++.",
"X++.@@oooo   oo@@      ooo@@.XX.",
"X++.@@ooo      @@oo   oooo@@.++X",
"X++.@ooo      @o @ooooooo@ @X++.",
"X++.@oo   @  @oo  @@ooo@@  @X++.",
"X++.@oo      @o     @@@    @X++.",
"X.+.@o      @oo            @X++.",
".++.@o @    @oo   @        @X++.",
"X++.@o      @ooo           @X++.",
"X++.@        @ooo       @  @X++.",
"X++.@   @    @oooo   @     @X++.",
"X++.@@        @ooooo      @@X++.",
"XXXXX@@        @@oooooo  @@XXXX.",
"XXOOXX@@@@@@@@@@@@@@@@@@@@XXOOXX",
"XO#@OXXXXXXXXXXXXXXXXXXXXXXO#@OX",
"XO@@OX++++++++.+++++++++++XO@@OX",
"XXOOXX+++++++++.++++++++++XXOOXX",
".XXXX......................XXXX."
};
