/* XPM */
static char *port2[] = {
/* columns rows colors chars-per-pixel */
"32 32 8 1 ",
"  c black",
". c #36485A",
"X c #465E75",
"o c #005980",
"O c #00A2E8",
"+ c #879EB6",
"@ c #91DEFF",
"# c white",
/* pixels */
".XXXXXXXXXXXXXXXXXXXXXXXXXXXXXX.",
"XXOOXX+++++.++++++++++++++XXOOXX",
"XO#@OX++++++.+++++++.+++++XO#@OX",
"XO@@OX....................XO@@OX",
"XXOOXX@@@@@@@@@@@@@@@@@@@@XXOOXX",
"XXXXX@@   @        @ooooo@@XXXX.",
"X++.@@@@@@o@@@        ooo@@@X++.",
"X++.@oooooooooo@     @ooo@ @X++.",
"X++.@oooooooooo@@      oo@ @X++.",
"X++.@ooo  o ooooo@     oo@ @X++.",
"X++.@o @       oo@    oooo@@X++.",
"X++.@o     @   o@   @  oo@ @X++.",
"X.+.@@          o@    ooo@ @X++.",
"X+..@          oo     ooo@ @X++.",
"X++.@    @@ @  o@     ooo  @X++.",
"X++.@   @oo@oo@@@oo ooo@@  @.XX.",
"X++.@  @@ooo oo@@@oo@oo@   @.++X",
"X++.@  ooo     @o  @ @@    @X++.",
"X++.@ @ooo     oo          @X++.",
"X++.@ @ooo    @o          @@X++.",
"X.+.@ @oo  @   @o   @     o@X++.",
".++.@@oooo    @oo       @ o@X++.",
"X++.@ @oo     @ooooo o  ooo@X++.",
"X++.@ @oo      @@oooooooooo@X++.",
"X++.@ @ooo@     @oooooooooo@X++.",
"X++.@@@ooo        @@@o@@@@@@X++.",
"XXXXX@@ooooo@        @   @@XXXX.",
"XXOOXX@@@@@@@@@@@@@@@@@@@@XXOOXX",
"XO#@OXXXXXXXXXXXXXXXXXXXXXXO#@OX",
"XO@@OX++++++++.+++++++++++XO@@OX",
"XXOOXX+++++++++.++++++++++XXOOXX",
".XXXX......................XXXX."
};
