/* XPM */
static char *port3[] = {
/* columns rows colors chars-per-pixel */
"32 32 8 1 ",
"  c black",
". c #36485A",
"X c #465E75",
"o c #005980",
"O c #00A2E8",
"+ c #879EB6",
"@ c #91DEFF",
"# c white",
/* pixels */
".XXXXXXXXXXXXXXXXXXXXXXXXXXXXXX.",
"XXOOXX+++++.++++++++++++++XXOOXX",
"XO#@OX++++++.+++++++.+++++XO#@OX",
"XO@@OX....................XO@@OX",
"XXOOXX@@@@@@@@@@@@@@@@@@@@XXOOXX",
"XXXXX@@           ooo@   @@XXXX.",
"X++.@@@            ooo@  @@@X++.",
"X++.@               ooo    @X++.",
"X++.@   @o@@@       ooo@   @X++.",
"X++.@ @ooooo@o@      ooo   @X++.",
"X++.@@ooooooooo@  @ ooo@   @X++.",
"X++.@oooo o  oo@     oo@   @X++.",
"X.+.@oo       o@@    o@@   @X++.",
"X+..@o    @   oo    ooo    @X++.",
"X++.@          o  oooo@    @X++.",
"X++.@       @  @@oo@@@     @.XX.",
"X++.@     @@@oo@@  @       @.++X",
"X++.@    @ooooo oo         @X++.",
"X++.@    ooo    oo   @    o@X++.",
"X++.@   @@o    @@o       oo@X++.",
"X.+.@   @ooo    @oo oo oooo@X++.",
".++.@   @ooo @  @ooooooooo@@X++.",
"X++.@   ooo      @o@ooooo@ @X++.",
"X++.@   @ooo       @@@o@   @X++.",
"X++.@    ooo               @X++.",
"X++.@@   @ooo             @@X++.",
"XXXXX@@   @ooo           @@XXXX.",
"XXOOXX@@@@@@@@@@@@@@@@@@@@XXOOXX",
"XO#@OXXXXXXXXXXXXXXXXXXXXXXO#@OX",
"XO@@OX++++++++.+++++++++++XO@@OX",
"XXOOXX+++++++++.++++++++++XXOOXX",
".XXXX......................XXXX."
};
