/* XPM */
static char *tile39[] = {
/* columns rows colors chars-per-pixel */
"32 32 2 1 ",
"  c black",
". c #41281B",
/* pixels */
" ... ..          .... .  . .. . ",
" ......  .. ...  .... .  . .... ",
" ......  .. ...  ... ..  . .... ",
" . ....  .. . .  .... .  . .... ",
" . ....  .... .  .... .  . . .. ",
" . ....  .... .  .... .  ... .. ",
" .. ...  .... .  .... .  ... .. ",
" .. ...  .... .  .... .         ",
" ......  .... .  ......         ",
" ... ..  .... .  ......  ... .. ",
" ... ..  ......  ......  ... .. ",
" ... ..  ......  . ....  ... .. ",
" ... ..  .. ...  . ....  ... .. ",
" ... ..  .. ...  .. ...  . . .. ",
" ... ..  ......  .. ...  . . .. ",
"         .. ...  . ....  . . .. ",
"         .. ...  . ....  ... .. ",
" . ....  .. ...  . ....  ... .. ",
" . . ..  .. ...  . ....  ...... ",
" . . ..  .. ...  . ....  .. ... ",
" ... ..  . ....  ......  .. ... ",
" ......  . ....          .. ... ",
" ......  . ....          .. ... ",
" ......  . ....  . . ..  .. ... ",
" .... .  . ....  . . ..  .. ... ",
" .... .  .. ...  . ....  .. ... ",
" .... .  .. ...  . ....  .. ... ",
" .... .  .. ...  ......  .. . . ",
" ... ..  .. ...  .... .  .... . ",
" ... ..  ......  .... .  .... . ",
" ... ..  ......  .... .  .... . ",
" ... ..          .... .  . .. . "
};
