/* XPM */
static char *wall[] = {
/* columns rows colors chars-per-pixel */
"32 32 4 1 ",
"  c black",
". c #36485A",
"X c #465E75",
"o c #879EB6",
/* pixels */
"                                ",
" oooooooooooooooo  oooooooooooo ",
" .ooooooooooooooo  .ooooooooooo ",
" .XXXXXXXXXXXXXoo  .XXXXXXXXXoo ",
" .XXXXXXXXXXXXXoo  .XXXXXXXXXoo ",
" .XXXXXXXXXXXXXoo  .XXXXXXXXXoo ",
" ...............o  ...........o ",
"                                ",
"                                ",
"ooooooooo  oooooooooooo  ooooooo",
"ooooooooo  .ooooooooooo  .oooooo",
"XXXXXXXoo  .XXXXXXXXXoo  .XXXXXX",
"XXXXXXXoo  .XXXXXXXXXoo  .XXXXXX",
"XXXXXXXoo  .XXXXXXXXXoo  .XXXXXX",
"........o  ...........o  .......",
"                                ",
"                                ",
" oooooooooooo  oooooooooooooooo ",
" .ooooooooooo  .ooooooooooooooo ",
" .XXXXXXXXXoo  .XXXXXXXXXXXXXoo ",
" .XXXXXXXXXoo  .XXXXXXXXXXXXXoo ",
" .XXXXXXXXXoo  .XXXXXXXXXXXXXoo ",
" ...........o  ...............o ",
"                                ",
"                                ",
"ooooooooo  oooooooooooo  ooooooo",
"ooooooooo  .ooooooooooo  .oooooo",
"XXXXXXXoo  .XXXXXXXXXoo  .XXXXXX",
"XXXXXXXoo  .XXXXXXXXXoo  .XXXXXX",
"XXXXXXXoo  .XXXXXXXXXoo  .XXXXXX",
"........o  ...........o  .......",
"                                "
};
